<svg width="48" height="48" viewBox="0 0 48 48" fill="none" xmlns="http://www.w3.org/2000/svg">
<path opacity="0.5" d="M40 44V32C40 26.4 40 23.6 38.91 21.46C37.9513 19.5785 36.4215 18.0487 34.54 17.09C32.4 16 29.6 16 24 16C18.4 16 15.6 16 13.46 17.09C11.5785 18.0487 10.0487 19.5785 9.09 21.46C8 23.6 8 26.4 8 32V44" stroke="#EE6C4D" stroke-width="3"/>
<path d="M30 21.63C32.46 21.63 34.46 23.54 34.37 26M4 44H44M24 4V10M42 10L39 13M6 10L9 13" stroke="#293241" stroke-opacity="0.85" stroke-width="3" stroke-linecap="round"/>
<path d="M27 35C27 35.7956 26.6839 36.5587 26.1213 37.1213C25.5587 37.6839 24.7956 38 24 38C23.2044 38 22.4413 37.6839 21.8787 37.1213C21.3161 36.5587 21 35.7956 21 35C21 34.2044 21.3161 33.4413 21.8787 32.8787C22.4413 32.3161 23.2044 32 24 32C24.7956 32 25.5587 32.3161 26.1213 32.8787C26.6839 33.4413 27 34.2044 27 35Z" stroke="#293241" stroke-width="3"/>
<path opacity="0.5" d="M24 38V44" stroke="#EE6C4D" stroke-width="3" stroke-linecap="round"/>
<path opacity="0.5" d="M40 44V32C40 26.4 40 23.6 38.91 21.46C37.9513 19.5785 36.4215 18.0487 34.54 17.09C32.4 16 29.6 16 24 16C18.4 16 15.6 16 13.46 17.09C11.5785 18.0487 10.0487 19.5785 9.09 21.46C8 23.6 8 26.4 8 32V44" stroke="#EE6C4D" stroke-width="3"/>
<path d="M30 21.63C32.46 21.63 34.46 23.54 34.37 26M4 44H44M24 4V10M42 10L39 13M6 10L9 13" stroke="#293241" stroke-opacity="0.85" stroke-width="3" stroke-linecap="round"/>
<path d="M27 35C27 35.7956 26.6839 36.5587 26.1213 37.1213C25.5587 37.6839 24.7956 38 24 38C23.2044 38 22.4413 37.6839 21.8787 37.1213C21.3161 36.5587 21 35.7956 21 35C21 34.2044 21.3161 33.4413 21.8787 32.8787C22.4413 32.3161 23.2044 32 24 32C24.7956 32 25.5587 32.3161 26.1213 32.8787C26.6839 33.4413 27 34.2044 27 35Z" stroke="#293241" stroke-width="3"/>
<path opacity="0.5" d="M24 38V44" stroke="#EE6C4D" stroke-width="3" stroke-linecap="round"/>
</svg>
