<svg width="48" height="48" viewBox="0 0 48 48" fill="none" xmlns="http://www.w3.org/2000/svg">
<path fill-rule="evenodd" clip-rule="evenodd" d="M29.8951 33.078C26.8492 35.3218 23.0681 36.3318 19.3091 35.9058C15.5501 35.4798 12.0908 33.6491 9.62445 30.7806C7.15805 27.912 5.86663 24.2175 6.00891 20.4371C6.15119 16.6567 7.71666 13.0697 10.3917 10.3946C13.0667 7.71959 16.6538 6.15412 20.4342 6.01184C24.2146 5.86956 27.9091 7.16098 30.7776 9.62738C33.6462 12.0938 35.4768 15.553 35.9029 19.312C36.3289 23.071 35.3189 26.8522 33.0751 29.898L41.34 38.16C41.5611 38.366 41.7384 38.6144 41.8614 38.8904C41.9844 39.1664 42.0505 39.4643 42.0558 39.7664C42.0612 40.0685 42.0056 40.3686 41.8924 40.6488C41.7793 40.9289 41.6108 41.1834 41.3972 41.3971C41.1835 41.6107 40.929 41.7792 40.6488 41.8923C40.3687 42.0055 40.0686 42.0611 39.7665 42.0558C39.4644 42.0504 39.1664 41.9843 38.8904 41.8613C38.6144 41.7383 38.366 41.561 38.16 41.34L29.8951 33.078ZM31.5 21C31.5001 23.7848 30.3938 26.4555 28.4247 28.4246C26.4555 30.3937 23.7848 31.5 21 31.5C18.2153 31.5 15.5446 30.3937 13.5754 28.4246C11.6063 26.4555 10.5 23.7848 10.5 21C10.5 18.2152 11.6063 15.5445 13.5754 13.5754C15.5446 11.6062 18.2153 10.5 21 10.5C23.7848 10.5 26.4555 11.6062 28.4247 13.5754C30.3938 15.5445 31.5 18.2152 31.5 21Z" fill="black"/>
</svg>
