<svg width="48" height="48" viewBox="0 0 48 48" fill="none" xmlns="http://www.w3.org/2000/svg">
<path d="M24 28C28.412 28 32 24.412 32 20C32 15.588 28.412 12 24 12C19.588 12 16 15.588 16 20C16 24.412 19.588 28 24 28ZM24 16C26.206 16 28 17.794 28 20C28 22.206 26.206 24 24 24C21.794 24 20 22.206 20 20C20 17.794 21.794 16 24 16Z" fill="black"/>
<path d="M22.8401 43.628C23.1788 43.8692 23.5842 43.9988 24.0001 43.9988C24.4159 43.9988 24.8213 43.8692 25.1601 43.628C25.7681 43.198 40.0581 32.88 40.0001 20C40.0001 11.178 32.8221 4 24.0001 4C15.1781 4 8.00005 11.178 8.00005 19.99C7.94205 32.88 22.2321 43.198 22.8401 43.628ZM24.0001 8C30.6181 8 36.0001 13.382 36.0001 20.01C36.0421 28.886 27.2241 36.856 24.0001 39.47C20.7781 36.854 11.9581 28.882 12.0001 20C12.0001 13.382 17.3821 8 24.0001 8Z" fill="black"/>
</svg>
